<svg xmlns="http://www.w3.org/2000/svg" viewBox="0 0 4398 4398">
  <defs>
    <radialGradient id="bg" cx="50%" cy="50%" r="50%">
      <stop offset="0%" stop-color="#ffffff"/>
      <stop offset="100%" stop-color="#d0d0d0"/>
    </radialGradient>
  </defs>
  <circle cx="2199" cy="2199" r="2199" fill="url(#bg)"/>
  <g transform="translate(0,4398) scale(0.1,-0.1)" fill="black" stroke="none">
    <path d="M21560 43974 c-2292 -50 -4438 -425 -6591 -1150 -5070 -1707 -9381
-5239 -12035 -9860 -2173 -3784 -3178 -8148 -2879 -12504 226 -3280 1201
-6497 2843 -9370 1958 -3428 4786 -6257 8199 -8203 866 -494 1820 -952 2752
-1322 3284 -1302 6845 -1803 10336 -1454 2425 242 4766 881 7005 1910 291 133
953 464 1237 618 2332 1262 4399 2911 6139 4901 1607 1838 2916 3975 3824
6245 1293 3233 1811 6750 1499 10190 -283 3124 -1232 6148 -2792 8890 -1378
2423 -3207 4566 -5387 6310 -1709 1368 -3651 2488 -5695 3285 -2292 894 -4704
1398 -7180 1500 -261 10 -1042 19 -1275 14z m900 -914 c397 -11 650 -22 975
-45 2166 -154 4301 -638 6321 -1434 252 -99 582 -291 1109 -642 1149 -767
2236 -1734 3259 -2899 2361 -2687 4190 -6264 5055 -9885 731 -3061 743 -5885
35 -8181 l-56 -182 -222 128 c-1693 976 -3702 2378 -5671 3959 -506 406 -795
649 -795 669 0 9 7 85 15 167 72 762 85 1671 35 2480 -148 2373 -798 4759
-1901 6985 -1546 3119 -3859 5692 -6604 7345 -1024 617 -2127 1110 -3226 1444
-119 36 -157 51 -139 55 36 8 471 27 790 36 420 10 622 11 1020 0z m-3983
-355 c1758 -224 3479 -829 5091 -1787 111 -66 205 -124 208 -129 3 -5 -2 -9
-10 -9 -9 0 -134 -29 -278 -65 -4968 -1223 -9654 -3791 -13703 -7510 -712
-653 -1512 -1455 -2186 -2190 -2604 -2839 -4850 -6223 -6514 -9815 -70 -151
-130 -279 -135 -283 -11 -12 -19 132 -31 583 -40 1549 119 3259 451 4825 758
3576 2370 6807 4758 9537 557 636 1331 1410 1957 1958 2007 1756 4275 3094
6779 4001 758 275 1604 524 2406 709 313 72 931 198 977 199 18 1 122 -10 230
-24z m6395 -2663 c1698 -1275 3177 -2927 4340 -4851 100 -165 249 -423 246
-425 -2 -1 -77 -24 -168 -51 -1508 -441 -3687 -1525 -5994 -2982 -4140 -2615
-8329 -6108 -11707 -9763 -3177 -3438 -5588 -6955 -7094 -10350 -111 -251
-326 -755 -339 -798 -10 -29 -18 -28 -37 6 -9 15 -81 133 -159 262 -1476 2429
-2443 5144 -2844 7986 l-36 252 109 258 c624 1482 1388 3017 2188 4396 2984
5149 7030 9408 11743 12357 2900 1815 6024 3107 9205 3804 138 31 259 57 270
60 11 3 28 5 37 6 9 0 117 -74 240 -167z m9393 -921 c2790 -2002 5072 -4687
6600 -7766 982 -1981 1656 -4130 1974 -6295 114 -780 182 -1528 212 -2355 13
-357 7 -1369 -10 -1680 -45 -817 -112 -1482 -221 -2200 -39 -255 -90 -556 -96
-564 -9 -11 -398 100 -669 190 -568 190 -1164 443 -1863 791 -229 115 -361
186 -358 193 20 53 109 340 162 525 691 2385 656 5338 -99 8440 -98 402 -249
952 -332 1210 -18 58 -74 234 -124 392 -812 2569 -2134 5148 -3729 7273 -511
680 -1015 1277 -1597 1890 l-180 189 85 -59 c47 -33 157 -111 245 -174z
m-4310 -5286 c161 -327 290 -607 422 -914 1134 -2646 1610 -5465 1368 -8111
-25 -270 -17 -245 -94 -287 -3514 -1937 -7132 -4591 -10386 -7618 -817 -761
-1811 -1750 -2556 -2545 -2532 -2703 -4547 -5442 -5993 -8147 l-98 -183 -36 5
c-21 2 -109 7 -197 10 -415 15 -1036 73 -1540 145 -1831 263 -3342 803 -4330
1549 -145 110 -159 123 -359 351 -464 528 -919 1103 -1336 1689 l-173 243 13
37 c80 229 418 1038 608 1456 1520 3340 3916 6781 7087 10175 910 974 2040
2092 3059 3029 2844 2611 5986 4995 8976 6808 1900 1153 3717 2040 4981 2432
175 54 432 129 452 130 4 1 63 -114 132 -254z m2285 -10091 c203 -169 880
-714 1150 -925 1523 -1191 3104 -2300 4495 -3151 1241 -759 2400 -1352 3404
-1742 384 -149 1057 -366 1245 -402 26 -4 36 -12 36 -24 0 -28 -73 -344 -156
-673 -556 -2211 -1461 -4302 -2692 -6222 -165 -257 -337 -512 -535 -791 l-150
-212 -191 50 c-982 254 -2105 650 -3129 1102 -410 182 -515 230 -822 377
-2764 1330 -5717 3400 -8410 5898 -609 565 -1378 1329 -1788 1777 l-46 50 332
265 c2258 1803 4536 3349 6807 4621 145 81 267 148 270 148 3 0 84 -66 180
-146z m-7995 -5556 c208 -225 1117 -1136 1390 -1394 2215 -2092 4532 -3859
6865 -5234 943 -555 2051 -1124 2971 -1526 959 -418 1898 -755 2848 -1023 118
-34 215 -62 217 -63 3 -4 -255 -324 -414 -513 -1727 -2050 -3832 -3755 -6208
-5028 l-161 -87 -164 20 c-2949 365 -6005 1836 -8979 4321 -1213 1014 -2441
2232 -3521 3494 -460 538 -1067 1300 -1056 1328 5 13 224 264 486 557 1416
1581 3074 3206 4756 4661 366 316 784 669 793 669 4 0 84 -82 177 -182z
m-6594 -6458 c146 -191 394 -500 598 -745 1369 -1646 2965 -3205 4551 -4446
2167 -1696 4373 -2877 6550 -3505 277 -80 798 -210 1023 -255 92 -19 167 -37
167 -40 0 -8 -427 -191 -730 -313 -1801 -724 -3744 -1204 -5675 -1401 -343
-35 -727 -63 -1165 -87 -318 -17 -1593 -17 -1920 0 -503 26 -909 59 -1400 113
-284 31 -286 31 -425 82 -664 238 -1443 611 -2090 998 -1336 801 -2551 1891
-3436 3084 -118 160 -369 532 -369 548 0 24 403 751 630 1137 904 1533 1995
3081 3264 4630 288 352 298 363 311 348 7 -7 59 -74 116 -148z m-9237 -5756
c1125 -366 2519 -605 3931 -675 l240 -12 112 -56 112 -56 122 -175 c763 -1093
1778 -2106 2952 -2949 109 -78 497 -340 562 -380 l20 -12 -20 5 c-75 19 -383
107 -550 158 -2591 780 -4969 2029 -7070 3712 -264 211 -602 496 -589 496 4 0
84 -25 178 -56z"/>
  </g>
</svg>
